<svg xmlns="http://www.w3.org/2000/svg" width="1400" height="2056" viewBox="0 0 1400 2056" font-family="Arial, Helvetica, sans-serif"><defs><marker id="a" viewBox="0 0 10 10" refX="9" refY="5" markerWidth="7" markerHeight="7" orient="auto-start-reverse"><path d="M0,1 L10,5 L0,9 z" fill="#8A8A8A"/></marker></defs><rect width="100%" height="100%" fill="#FFFFFF"/><path d="M300,1016 L344,1016 L344,1016 L580,1016" fill="none" stroke="#8A8A8A" stroke-width="1.2" stroke-dasharray="none" marker-end="url(#a)"/><text x="462" y="1009.0" font-size="11" fill="#4A4A4A" font-weight="normal" text-anchor="middle"><tspan x="462" dy="0.0">Đăng nhập vai trò ADMIN</tspan></text><path d="M820,1016 L864,1016 L864,92 L1100,92" fill="none" stroke="#8A8A8A" stroke-width="1.2" stroke-dasharray="none" marker-end="url(#a)"/><text x="982" y="85.0" font-size="11" fill="#4A4A4A" font-weight="normal" text-anchor="middle"><tspan x="982" dy="0.0">Bấm &#x27;Tài khoản Provider&#x27;</tspan></text><path d="M820,1016 L872,1016 L872,224 L1100,224" fill="none" stroke="#8A8A8A" stroke-width="1.2" stroke-dasharray="none" marker-end="url(#a)"/><text x="986" y="217.0" font-size="11" fill="#4A4A4A" font-weight="normal" text-anchor="middle"><tspan x="986" dy="0.0">Bấm &#x27;Duyệt cơ sở&#x27;</tspan></text><path d="M820,1016 L879,1016 L879,356 L1100,356" fill="none" stroke="#8A8A8A" stroke-width="1.2" stroke-dasharray="none" marker-end="url(#a)"/><text x="990" y="349.0" font-size="11" fill="#4A4A4A" font-weight="normal" text-anchor="middle"><tspan x="990" dy="0.0">Bấm &#x27;Yêu cầu nâng gói&#x27;</tspan></text><path d="M820,1016 L887,1016 L887,488 L1100,488" fill="none" stroke="#8A8A8A" stroke-width="1.2" stroke-dasharray="none" marker-end="url(#a)"/><text x="993" y="481.0" font-size="11" fill="#4A4A4A" font-weight="normal" text-anchor="middle"><tspan x="993" dy="0.0">Bấm &#x27;Sổ giao dịch&#x27;</tspan></text><path d="M820,1016 L894,1016 L894,620 L1100,620" fill="none" stroke="#8A8A8A" stroke-width="1.2" stroke-dasharray="none" marker-end="url(#a)"/><text x="997" y="613.0" font-size="11" fill="#4A4A4A" font-weight="normal" text-anchor="middle"><tspan x="997" dy="0.0">Bấm &#x27;Phí tổ chức giải&#x27;</tspan></text><path d="M820,1016 L902,1016 L902,752 L1100,752" fill="none" stroke="#8A8A8A" stroke-width="1.2" stroke-dasharray="none" marker-end="url(#a)"/><text x="1001" y="745.0" font-size="11" fill="#4A4A4A" font-weight="normal" text-anchor="middle"><tspan x="1001" dy="0.0">Bấm &#x27;Gói dịch vụ&#x27;</tspan></text><path d="M820,1016 L909,1016 L909,884 L1100,884" fill="none" stroke="#8A8A8A" stroke-width="1.2" stroke-dasharray="none" marker-end="url(#a)"/><text x="1005" y="877.0" font-size="11" fill="#4A4A4A" font-weight="normal" text-anchor="middle"><tspan x="1005" dy="0.0">Bấm &#x27;Kênh Messenger&#x27;</tspan></text><path d="M820,1016 L917,1016 L917,1016 L1100,1016" fill="none" stroke="#8A8A8A" stroke-width="1.2" stroke-dasharray="none" marker-end="url(#a)"/><text x="1008" y="1009.0" font-size="11" fill="#4A4A4A" font-weight="normal" text-anchor="middle"><tspan x="1008" dy="0.0">Bấm &#x27;Tiện ích cơ sở&#x27;</tspan></text><path d="M820,1016 L925,1016 L925,1148 L1100,1148" fill="none" stroke="#8A8A8A" stroke-width="1.2" stroke-dasharray="none" marker-end="url(#a)"/><text x="1012" y="1141.0" font-size="11" fill="#4A4A4A" font-weight="normal" text-anchor="middle"><tspan x="1012" dy="0.0">Bấm &#x27;Loại đường chạy&#x27;</tspan></text><path d="M820,1016 L932,1016 L932,1280 L1100,1280" fill="none" stroke="#8A8A8A" stroke-width="1.2" stroke-dasharray="none" marker-end="url(#a)"/><text x="1016" y="1273.0" font-size="11" fill="#4A4A4A" font-weight="normal" text-anchor="middle"><tspan x="1016" dy="0.0">Bấm &#x27;Cuộc trò chuyện&#x27;</tspan></text><path d="M820,1016 L940,1016 L940,1412 L1100,1412" fill="none" stroke="#8A8A8A" stroke-width="1.2" stroke-dasharray="none" marker-end="url(#a)"/><text x="1020" y="1405.0" font-size="11" fill="#4A4A4A" font-weight="normal" text-anchor="middle"><tspan x="1020" dy="0.0">Bấm &#x27;Kho kiến thức&#x27;</tspan></text><path d="M820,1016 L947,1016 L947,1544 L1100,1544" fill="none" stroke="#8A8A8A" stroke-width="1.2" stroke-dasharray="none" marker-end="url(#a)"/><text x="1024" y="1537.0" font-size="11" fill="#4A4A4A" font-weight="normal" text-anchor="middle"><tspan x="1024" dy="0.0">Bấm &#x27;Popup trang chủ&#x27;</tspan></text><path d="M820,1016 L955,1016 L955,1676 L1100,1676" fill="none" stroke="#8A8A8A" stroke-width="1.2" stroke-dasharray="none" marker-end="url(#a)"/><text x="1027" y="1669.0" font-size="11" fill="#4A4A4A" font-weight="normal" text-anchor="middle"><tspan x="1027" dy="0.0">Bấm &#x27;Cấu hình hệ thống&#x27;</tspan></text><path d="M820,1016 L962,1016 L962,1808 L1100,1808" fill="none" stroke="#8A8A8A" stroke-width="1.2" stroke-dasharray="none" marker-end="url(#a)"/><text x="1031" y="1801.0" font-size="11" fill="#4A4A4A" font-weight="normal" text-anchor="middle"><tspan x="1031" dy="0.0">Bấm &#x27;Hướng dẫn&#x27;</tspan></text><path d="M820,1016 L970,1016 L970,1940 L1100,1940" fill="none" stroke="#8A8A8A" stroke-width="1.2" stroke-dasharray="none" marker-end="url(#a)"/><text x="1035" y="1933.0" font-size="11" fill="#4A4A4A" font-weight="normal" text-anchor="middle"><tspan x="1035" dy="0.0">Bấm &#x27;Hồ sơ cá nhân&#x27;</tspan></text><rect x="60" y="984" width="240" height="64" rx="10" fill="#E4EFDD" stroke="#6B8F5A"/><text x="180" y="1012.5" font-size="12.5" fill="#1C1B1B" font-weight="normal" text-anchor="middle"><tspan x="180" dy="0.0">N13</tspan><tspan x="180" dy="16.0">Login Page</tspan></text><rect x="580" y="984" width="240" height="64" rx="0" fill="#FDF0D5" stroke="#C9A227"/><text x="700" y="1012.5" font-size="12.5" fill="#1C1B1B" font-weight="normal" text-anchor="middle"><tspan x="700" dy="0.0">N64</tspan><tspan x="700" dy="16.0">Admin Dashboard Page</tspan></text><rect x="1100" y="60" width="240" height="64" rx="0" fill="#FDF0D5" stroke="#C9A227"/><text x="1220" y="80.5" font-size="12.5" fill="#1C1B1B" font-weight="normal" text-anchor="middle"><tspan x="1220" dy="0.0">N65</tspan><tspan x="1220" dy="16.0">Providers /</tspan><tspan x="1220" dy="16.0">Provider Detail Pages</tspan></text><rect x="1100" y="192" width="240" height="64" rx="0" fill="#FDF0D5" stroke="#C9A227"/><text x="1220" y="220.5" font-size="12.5" fill="#1C1B1B" font-weight="normal" text-anchor="middle"><tspan x="1220" dy="0.0">N66</tspan><tspan x="1220" dy="16.0">Cafes Page</tspan></text><rect x="1100" y="456" width="240" height="64" rx="0" fill="#FDF0D5" stroke="#C9A227"/><text x="1220" y="484.5" font-size="12.5" fill="#1C1B1B" font-weight="normal" text-anchor="middle"><tspan x="1220" dy="0.0">N67</tspan><tspan x="1220" dy="16.0">Payments Page</tspan></text><rect x="1100" y="324" width="240" height="64" rx="0" fill="#FDF0D5" stroke="#C9A227"/><text x="1220" y="352.5" font-size="12.5" fill="#1C1B1B" font-weight="normal" text-anchor="middle"><tspan x="1220" dy="0.0">N68</tspan><tspan x="1220" dy="16.0">Payment Requests Page</tspan></text><rect x="1100" y="588" width="240" height="64" rx="0" fill="#FDF0D5" stroke="#C9A227"/><text x="1220" y="616.5" font-size="12.5" fill="#1C1B1B" font-weight="normal" text-anchor="middle"><tspan x="1220" dy="0.0">N69</tspan><tspan x="1220" dy="16.0">Contest Fee Orders Page</tspan></text><rect x="1100" y="720" width="240" height="64" rx="0" fill="#FDF0D5" stroke="#C9A227"/><text x="1220" y="748.5" font-size="12.5" fill="#1C1B1B" font-weight="normal" text-anchor="middle"><tspan x="1220" dy="0.0">N70</tspan><tspan x="1220" dy="16.0">Subscription Plans Page</tspan></text><rect x="1100" y="1644" width="240" height="64" rx="0" fill="#FDF0D5" stroke="#C9A227"/><text x="1220" y="1672.5" font-size="12.5" fill="#1C1B1B" font-weight="normal" text-anchor="middle"><tspan x="1220" dy="0.0">N71</tspan><tspan x="1220" dy="16.0">Feature Flags Page</tspan></text><rect x="1100" y="1512" width="240" height="64" rx="0" fill="#FDF0D5" stroke="#C9A227"/><text x="1220" y="1540.5" font-size="12.5" fill="#1C1B1B" font-weight="normal" text-anchor="middle"><tspan x="1220" dy="0.0">N72</tspan><tspan x="1220" dy="16.0">Featured Popups Page</tspan></text><rect x="1100" y="1248" width="240" height="64" rx="0" fill="#FDF0D5" stroke="#C9A227"/><text x="1220" y="1276.5" font-size="12.5" fill="#1C1B1B" font-weight="normal" text-anchor="middle"><tspan x="1220" dy="0.0">N73</tspan><tspan x="1220" dy="16.0">System Chat Page</tspan></text><rect x="1100" y="1380" width="240" height="64" rx="0" fill="#FDF0D5" stroke="#C9A227"/><text x="1220" y="1408.5" font-size="12.5" fill="#1C1B1B" font-weight="normal" text-anchor="middle"><tspan x="1220" dy="0.0">N74</tspan><tspan x="1220" dy="16.0">Knowledge Base Page</tspan></text><rect x="1100" y="852" width="240" height="64" rx="0" fill="#FDF0D5" stroke="#C9A227"/><text x="1220" y="880.5" font-size="12.5" fill="#1C1B1B" font-weight="normal" text-anchor="middle"><tspan x="1220" dy="0.0">N75</tspan><tspan x="1220" dy="16.0">Channel Settings Page</tspan></text><rect x="1100" y="984" width="240" height="64" rx="0" fill="#FDF0D5" stroke="#C9A227"/><text x="1220" y="1012.5" font-size="12.5" fill="#1C1B1B" font-weight="normal" text-anchor="middle"><tspan x="1220" dy="0.0">N76</tspan><tspan x="1220" dy="16.0">Amenities Page</tspan></text><rect x="1100" y="1116" width="240" height="64" rx="0" fill="#FDF0D5" stroke="#C9A227"/><text x="1220" y="1144.5" font-size="12.5" fill="#1C1B1B" font-weight="normal" text-anchor="middle"><tspan x="1220" dy="0.0">N77</tspan><tspan x="1220" dy="16.0">Track Types Page</tspan></text><rect x="1100" y="1776" width="240" height="64" rx="0" fill="#FDF0D5" stroke="#C9A227"/><text x="1220" y="1804.5" font-size="12.5" fill="#1C1B1B" font-weight="normal" text-anchor="middle"><tspan x="1220" dy="0.0">N78</tspan><tspan x="1220" dy="16.0">Guide Page</tspan></text><rect x="1100" y="1908" width="240" height="64" rx="0" fill="#FDF0D5" stroke="#C9A227"/><text x="1220" y="1936.5" font-size="12.5" fill="#1C1B1B" font-weight="normal" text-anchor="middle"><tspan x="1220" dy="0.0">N21</tspan><tspan x="1220" dy="16.0">Profile Page</tspan></text></svg>